<svg width="276" height="40" viewBox="0 0 276 40" fill="none" xmlns="http://www.w3.org/2000/svg">
<g clip-path="url(#clip0_533_11780)">
<path d="M0 15.8321L21.3552 31.6482C21.6771 31.8866 21.6019 32.3879 21.2242 32.5214L13.73 35.1695C13.1005 35.3919 12.4016 35.2856 11.8667 34.8861L0.874866 26.6748C0.373839 26.3005 0.0767331 25.7134 0.0718768 25.0881L0 15.8321Z" fill="#355DEE"/>
<path d="M9.06241 11.9376V22.5439L0 15.8321L9.06241 11.9376Z" fill="#60AFC2"/>
<path d="M13.1069 2.02295C13.4187 1.92344 13.7357 2.16027 13.7288 2.48745V11.1561L4.99002 4.6139L13.1069 2.02295Z" fill="#60AFC2"/>
<path d="M30.6056 35.2296L23.7959 39.9151C23.4767 40.1347 23.0428 39.9024 23.0486 39.515L23.3715 29.7815L30.6056 35.2296Z" fill="#60AFC2"/>
<path d="M4.99002 4.6139L29.8042 23.1909C30.3086 23.5686 30.6056 24.1619 30.6056 24.792L30.6056 35.2296L5.65864 16.4417C5.14985 16.0585 4.85399 15.4558 4.86199 14.819L4.99002 4.6139Z" fill="#355DEE"/>
<path d="M43.6417 21.228C43.6417 19.324 44.0804 17.616 44.9577 16.104C45.8537 14.592 47.0577 13.416 48.5697 12.576C50.1004 11.7173 51.771 11.288 53.5817 11.288C55.6537 11.288 57.4924 11.8013 59.0977 12.828C60.7217 13.836 61.8977 15.2733 62.6257 17.14H58.7897C58.2857 16.1133 57.5857 15.348 56.6897 14.844C55.7937 14.34 54.7577 14.088 53.5817 14.088C52.2937 14.088 51.1457 14.3773 50.1377 14.956C49.1297 15.5347 48.3364 16.3653 47.7577 17.448C47.1977 18.5307 46.9177 19.7907 46.9177 21.228C46.9177 22.6653 47.1977 23.9253 47.7577 25.008C48.3364 26.0907 49.1297 26.9307 50.1377 27.528C51.1457 28.1067 52.2937 28.396 53.5817 28.396C54.7577 28.396 55.7937 28.144 56.6897 27.64C57.5857 27.136 58.2857 26.3707 58.7897 25.344H62.6257C61.8977 27.2107 60.7217 28.648 59.0977 29.656C57.4924 30.664 55.6537 31.168 53.5817 31.168C51.7524 31.168 50.0817 30.748 48.5697 29.908C47.0577 29.0493 45.8537 27.864 44.9577 26.352C44.0804 24.84 43.6417 23.132 43.6417 21.228ZM73.054 31.252C71.598 31.252 70.282 30.9253 69.106 30.272C67.93 29.6 67.006 28.6667 66.334 27.472C65.662 26.2587 65.326 24.8587 65.326 23.272C65.326 21.704 65.6713 20.3133 66.362 19.1C67.0526 17.8867 67.9953 16.9533 69.19 16.3C70.3846 15.6467 71.7193 15.32 73.194 15.32C74.6686 15.32 76.0033 15.6467 77.198 16.3C78.3926 16.9533 79.3353 17.8867 80.026 19.1C80.7166 20.3133 81.062 21.704 81.062 23.272C81.062 24.84 80.7073 26.2307 79.998 27.444C79.2886 28.6573 78.318 29.6 77.086 30.272C75.8726 30.9253 74.5286 31.252 73.054 31.252ZM73.054 28.48C73.8753 28.48 74.6406 28.284 75.35 27.892C76.078 27.5 76.666 26.912 77.114 26.128C77.562 25.344 77.786 24.392 77.786 23.272C77.786 22.152 77.5713 21.2093 77.142 20.444C76.7126 19.66 76.1433 19.072 75.434 18.68C74.7246 18.288 73.9593 18.092 73.138 18.092C72.3166 18.092 71.5513 18.288 70.842 18.68C70.1513 19.072 69.6006 19.66 69.19 20.444C68.7793 21.2093 68.574 22.152 68.574 23.272C68.574 24.9333 68.994 26.2213 69.834 27.136C70.6926 28.032 71.766 28.48 73.054 28.48ZM102.893 15.32C104.107 15.32 105.189 15.572 106.141 16.076C107.112 16.58 107.868 17.3267 108.409 18.316C108.969 19.3053 109.249 20.5 109.249 21.9V31H106.085V22.376C106.085 20.9947 105.74 19.94 105.049 19.212C104.359 18.4653 103.416 18.092 102.221 18.092C101.027 18.092 100.075 18.4653 99.3654 19.212C98.6748 19.94 98.3294 20.9947 98.3294 22.376V31H95.1654V22.376C95.1654 20.9947 94.8201 19.94 94.1294 19.212C93.4388 18.4653 92.4961 18.092 91.3014 18.092C90.1068 18.092 89.1548 18.4653 88.4454 19.212C87.7548 19.94 87.4094 20.9947 87.4094 22.376V31H84.2174V15.572H87.4094V17.336C87.9321 16.7013 88.5948 16.2067 89.3974 15.852C90.2001 15.4973 91.0588 15.32 91.9734 15.32C93.2054 15.32 94.3068 15.5813 95.2774 16.104C96.2481 16.6267 96.9948 17.3827 97.5174 18.372C97.9841 17.4387 98.7121 16.7013 99.7014 16.16C100.691 15.6 101.755 15.32 102.893 15.32ZM116.503 17.84C117.045 17.1307 117.782 16.5333 118.715 16.048C119.649 15.5627 120.703 15.32 121.879 15.32C123.223 15.32 124.446 15.656 125.547 16.328C126.667 16.9813 127.545 17.9053 128.179 19.1C128.814 20.2947 129.131 21.6667 129.131 23.216C129.131 24.7653 128.814 26.156 128.179 27.388C127.545 28.6013 126.667 29.5533 125.547 30.244C124.446 30.916 123.223 31.252 121.879 31.252C120.703 31.252 119.658 31.0187 118.743 30.552C117.829 30.0667 117.082 29.4693 116.503 28.76V38.336H113.311V15.572H116.503V17.84ZM125.883 23.216C125.883 22.152 125.659 21.2373 125.211 20.472C124.782 19.688 124.203 19.1 123.475 18.708C122.766 18.2973 122.001 18.092 121.179 18.092C120.377 18.092 119.611 18.2973 118.883 18.708C118.174 19.1187 117.595 19.716 117.147 20.5C116.718 21.284 116.503 22.208 116.503 23.272C116.503 24.336 116.718 25.2693 117.147 26.072C117.595 26.856 118.174 27.4533 118.883 27.864C119.611 28.2747 120.377 28.48 121.179 28.48C122.001 28.48 122.766 28.2747 123.475 27.864C124.203 27.4347 124.782 26.8187 125.211 26.016C125.659 25.2133 125.883 24.28 125.883 23.216ZM146.26 15.572V31H143.068V29.18C142.564 29.8147 141.901 30.3187 141.08 30.692C140.277 31.0467 139.418 31.224 138.504 31.224C137.29 31.224 136.198 30.972 135.228 30.468C134.276 29.964 133.52 29.2173 132.96 28.228C132.418 27.2387 132.148 26.044 132.148 24.644V15.572H135.312V24.168C135.312 25.5493 135.657 26.6133 136.348 27.36C137.038 28.088 137.981 28.452 139.176 28.452C140.37 28.452 141.313 28.088 142.004 27.36C142.713 26.6133 143.068 25.5493 143.068 24.168V15.572H146.26ZM154.195 18.176V26.716C154.195 27.2947 154.326 27.7147 154.587 27.976C154.867 28.2187 155.334 28.34 155.987 28.34H157.947V31H155.427C153.99 31 152.889 30.664 152.123 29.992C151.358 29.32 150.975 28.228 150.975 26.716V18.176H149.155V15.572H150.975V11.736H154.195V15.572H157.947V18.176H154.195ZM175.029 22.908C175.029 23.4867 174.992 24.0093 174.917 24.476H163.129C163.223 25.708 163.68 26.6973 164.501 27.444C165.323 28.1907 166.331 28.564 167.525 28.564C169.243 28.564 170.456 27.8453 171.165 26.408H174.609C174.143 27.8267 173.293 28.9933 172.061 29.908C170.848 30.804 169.336 31.252 167.525 31.252C166.051 31.252 164.725 30.9253 163.549 30.272C162.392 29.6 161.477 28.6667 160.805 27.472C160.152 26.2587 159.825 24.8587 159.825 23.272C159.825 21.6853 160.143 20.2947 160.777 19.1C161.431 17.8867 162.336 16.9533 163.493 16.3C164.669 15.6467 166.013 15.32 167.525 15.32C168.981 15.32 170.279 15.6373 171.417 16.272C172.556 16.9067 173.443 17.8027 174.077 18.96C174.712 20.0987 175.029 21.4147 175.029 22.908ZM171.697 21.9C171.679 20.724 171.259 19.7813 170.437 19.072C169.616 18.3627 168.599 18.008 167.385 18.008C166.284 18.008 165.341 18.3627 164.557 19.072C163.773 19.7627 163.307 20.7053 163.157 21.9H171.697ZM184.583 31.196C183.276 31.196 182.1 30.972 181.055 30.524C180.009 30.0573 179.188 29.404 178.591 28.564C177.993 27.724 177.695 26.744 177.695 25.624H181.111C181.185 26.464 181.512 27.1547 182.091 27.696C182.688 28.2373 183.519 28.508 184.583 28.508C185.684 28.508 186.543 28.2467 187.159 27.724C187.775 27.1827 188.083 26.492 188.083 25.652C188.083 24.9987 187.887 24.4667 187.495 24.056C187.121 23.6453 186.645 23.328 186.067 23.104C185.507 22.88 184.723 22.6373 183.715 22.376C182.445 22.04 181.409 21.704 180.607 21.368C179.823 21.0133 179.151 20.472 178.591 19.744C178.031 19.016 177.751 18.0453 177.751 16.832C177.751 15.712 178.031 14.732 178.591 13.892C179.151 13.052 179.935 12.408 180.943 11.96C181.951 11.512 183.117 11.288 184.443 11.288C186.328 11.288 187.868 11.764 189.063 12.716C190.276 13.6493 190.948 14.9373 191.079 16.58H187.551C187.495 15.8707 187.159 15.264 186.543 14.76C185.927 14.256 185.115 14.004 184.107 14.004C183.192 14.004 182.445 14.2373 181.867 14.704C181.288 15.1707 180.999 15.8427 180.999 16.72C180.999 17.3173 181.176 17.812 181.531 18.204C181.904 18.5773 182.371 18.876 182.931 19.1C183.491 19.324 184.256 19.5667 185.227 19.828C186.515 20.1827 187.56 20.5373 188.363 20.892C189.184 21.2467 189.875 21.7973 190.435 22.544C191.013 23.272 191.303 24.252 191.303 25.484C191.303 26.4733 191.032 27.4067 190.491 28.284C189.968 29.1613 189.193 29.8707 188.167 30.412C187.159 30.9347 185.964 31.196 184.583 31.196ZM198.261 17.84C198.802 17.1307 199.54 16.5333 200.473 16.048C201.406 15.5627 202.461 15.32 203.637 15.32C204.981 15.32 206.204 15.656 207.305 16.328C208.425 16.9813 209.302 17.9053 209.937 19.1C210.572 20.2947 210.889 21.6667 210.889 23.216C210.889 24.7653 210.572 26.156 209.937 27.388C209.302 28.6013 208.425 29.5533 207.305 30.244C206.204 30.916 204.981 31.252 203.637 31.252C202.461 31.252 201.416 31.0187 200.501 30.552C199.586 30.0667 198.84 29.4693 198.261 28.76V38.336H195.069V15.572H198.261V17.84ZM207.641 23.216C207.641 22.152 207.417 21.2373 206.969 20.472C206.54 19.688 205.961 19.1 205.233 18.708C204.524 18.2973 203.758 18.092 202.937 18.092C202.134 18.092 201.369 18.2973 200.641 18.708C199.932 19.1187 199.353 19.716 198.905 20.5C198.476 21.284 198.261 22.208 198.261 23.272C198.261 24.336 198.476 25.2693 198.905 26.072C199.353 26.856 199.932 27.4533 200.641 27.864C201.369 28.2747 202.134 28.48 202.937 28.48C203.758 28.48 204.524 28.2747 205.233 27.864C205.961 27.4347 206.54 26.8187 206.969 26.016C207.417 25.2133 207.641 24.28 207.641 23.216ZM222.026 15.32C223.202 15.32 224.247 15.572 225.162 16.076C226.095 16.58 226.823 17.3267 227.346 18.316C227.887 19.3053 228.158 20.5 228.158 21.9V31H224.994V22.376C224.994 20.9947 224.648 19.94 223.958 19.212C223.267 18.4653 222.324 18.092 221.13 18.092C219.935 18.092 218.983 18.4653 218.274 19.212C217.583 19.94 217.238 20.9947 217.238 22.376V31H214.046V10.28H217.238V17.364C217.779 16.7107 218.46 16.2067 219.282 15.852C220.122 15.4973 221.036 15.32 222.026 15.32ZM246.369 22.908C246.369 23.4867 246.332 24.0093 246.257 24.476H234.469C234.562 25.708 235.02 26.6973 235.841 27.444C236.662 28.1907 237.67 28.564 238.865 28.564C240.582 28.564 241.796 27.8453 242.505 26.408H245.949C245.482 27.8267 244.633 28.9933 243.401 29.908C242.188 30.804 240.676 31.252 238.865 31.252C237.39 31.252 236.065 30.9253 234.889 30.272C233.732 29.6 232.817 28.6667 232.145 27.472C231.492 26.2587 231.165 24.8587 231.165 23.272C231.165 21.6853 231.482 20.2947 232.117 19.1C232.77 17.8867 233.676 16.9533 234.833 16.3C236.009 15.6467 237.353 15.32 238.865 15.32C240.321 15.32 241.618 15.6373 242.757 16.272C243.896 16.9067 244.782 17.8027 245.417 18.96C246.052 20.0987 246.369 21.4147 246.369 22.908ZM243.037 21.9C243.018 20.724 242.598 19.7813 241.777 19.072C240.956 18.3627 239.938 18.008 238.725 18.008C237.624 18.008 236.681 18.3627 235.897 19.072C235.113 19.7627 234.646 20.7053 234.497 21.9H243.037ZM252.702 17.812C253.169 17.028 253.785 16.4213 254.55 15.992C255.334 15.544 256.258 15.32 257.322 15.32V18.624H256.51C255.26 18.624 254.308 18.9413 253.654 19.576C253.02 20.2107 252.702 21.312 252.702 22.88V31H249.51V15.572H252.702V17.812ZM274.396 22.908C274.396 23.4867 274.359 24.0093 274.284 24.476H262.496C262.59 25.708 263.047 26.6973 263.868 27.444C264.69 28.1907 265.698 28.564 266.892 28.564C268.61 28.564 269.823 27.8453 270.532 26.408H273.976C273.51 27.8267 272.66 28.9933 271.428 29.908C270.215 30.804 268.703 31.252 266.892 31.252C265.418 31.252 264.092 30.9253 262.916 30.272C261.759 29.6 260.844 28.6667 260.172 27.472C259.519 26.2587 259.192 24.8587 259.192 23.272C259.192 21.6853 259.51 20.2947 260.144 19.1C260.798 17.8867 261.703 16.9533 262.86 16.3C264.036 15.6467 265.38 15.32 266.892 15.32C268.348 15.32 269.646 15.6373 270.784 16.272C271.923 16.9067 272.81 17.8027 273.444 18.96C274.079 20.0987 274.396 21.4147 274.396 22.908ZM271.064 21.9C271.046 20.724 270.626 19.7813 269.804 19.072C268.983 18.3627 267.966 18.008 266.752 18.008C265.651 18.008 264.708 18.3627 263.924 19.072C263.14 19.7627 262.674 20.7053 262.524 21.9H271.064Z" fill="#333333"/>
</g>
<defs>
<clipPath id="clip0_533_11780">
<rect width="275.61" height="40" fill="white"/>
</clipPath>
</defs>
</svg>
